<?xml version="1.0" standalone="no"?>
<!DOCTYPE svg PUBLIC "-//W3C//DTD SVG 20010904//EN"
 "http://www.w3.org/TR/2001/REC-SVG-20010904/DTD/svg10.dtd">
<svg version="1.0" xmlns="http://www.w3.org/2000/svg"
 width="1254.000000pt" height="1254.000000pt" viewBox="0 0 1254.000000 1254.000000"
 preserveAspectRatio="xMidYMid meet">

<g transform="translate(0.000000,1254.000000) scale(0.100000,-0.100000)"
fill="#000000" stroke="none">
<path d="M0 6270 l0 -6270 6270 0 6270 0 0 6270 0 6270 -6270 0 -6270 0 0
-6270z m9788 3377 c20 -16 14 -54 -19 -120 -17 -34 -125 -235 -239 -447 -114
-212 -245 -456 -290 -543 -89 -169 -130 -218 -197 -236 -26 -8 -642 -11 -1980
-11 l-1943 0 -5 -22 c-5 -22 -55 -305 -164 -928 -28 -157 -87 -487 -131 -735
-153 -852 -182 -1011 -215 -1200 -19 -104 -63 -356 -100 -559 -36 -203 -62
-373 -57 -378 4 -4 1128 -9 2497 -10 l2490 -3 9 -27 c8 -23 -25 -91 -306 -620
-174 -326 -330 -621 -346 -654 -38 -75 -98 -130 -156 -141 -22 -4 -1204 -6
-2626 -3 l-2585 5 -84 29 c-176 62 -323 193 -404 359 -63 129 -81 206 -81 357
-1 113 6 162 71 520 40 217 122 676 182 1020 61 344 133 749 160 900 28 151
75 415 105 585 152 851 181 1016 266 1469 56 306 102 523 121 579 125 376 433
669 834 794 l90 28 2505 5 c1378 3 2523 3 2545 1 22 -2 46 -8 53 -14z m-1039
-2671 c55 -53 57 -30 -54 -620 -31 -165 -65 -323 -76 -352 -42 -113 -131 -203
-255 -262 l-59 -27 -1450 -3 c-1034 -2 -1458 1 -1477 9 -38 16 -68 52 -74 90
-4 21 19 169 61 389 36 195 79 431 95 524 33 189 51 230 117 265 37 20 59 20
1590 18 l1552 -2 30 -29z"/>
</g>
</svg>
